<?xml version="1.0" encoding="UTF-8"?> <svg xmlns="http://www.w3.org/2000/svg" xmlns:xlink="http://www.w3.org/1999/xlink" version="1.1" id="Capa_1" x="0px" y="0px" viewBox="0 0 1080 1080" style="enable-background:new 0 0 1080 1080;" xml:space="preserve"> <g> <path d="M301.55,607.6c2.8-8.26,5.58-16.47,8.38-24.67c2.35-6.91,3.42-7.7,10.83-7.71c32.05-0.01,64.11-0.01,96.16,0 c6.74,0,8.08,1.02,10.33,7.66c2.74,8.06,5.46,16.11,8.32,24.54c9.51,0,19.06,0,29.6,0c0-5.91-0.05-11.95,0.01-17.99 c0.36-35.93,0.71-71.85,1.13-107.78c0.11-9.81,0.25-19.63,0.75-29.42c0.76-15.14,9.24-23.16,24.46-23.41 c7.22-0.12,14.45-0.01,21.68-0.01c36.87,0,73.74,0.17,110.61-0.11c9.96-0.08,18.48,3.24,26.54,8.36 c14.7,9.34,24.4,23.04,32.16,38.21c10.88,21.26,17.08,44.07,21.61,67.4c4.11,21.17,5.64,42.49,5.46,64.06 c-0.36,43.72-0.11,87.45-0.11,131.18c0,2.2,0,4.39,0,7.15c-28.48,0-56.55,0-85.19,0c0,9.34,0,18.15,0,27.36 c-62.14,0-123.71,0-185.75,0c0-10.1,0-19.86,0-30.39c-2.77,0-5.11,0-7.44,0c-72.26,0-144.52,0-216.78,0c-1.67,0-3.34,0.09-5-0.04 c-8.06-0.64-12.43-5.22-12.44-13.37c-0.02-17.04-0.43-34.11,0.38-51.12c0.42-8.75,2.16-17.71,4.97-26.01 c7.79-23.07,24.99-35.93,48.13-41.55c9.61-2.34,19.38-2.74,29.24-2.4C286.77,607.79,293.98,607.6,301.55,607.6z M684.55,596 c0-2.14-0.08-3.95,0.01-5.74c0.84-16.83-2.44-33.15-6.21-49.38c-4.95-21.33-11.71-42.02-23.35-60.79 c-6.4-10.33-14.11-19.51-24.68-25.84c-2.09-1.25-4.77-2.12-7.19-2.13c-10.54-0.04-21.09,0.27-31.63,0.53 c-1.38,0.03-2.74,0.55-3.8,0.78c0,47.84,0,95.15,0,142.57C620.02,596,651.95,596,684.55,596z M560.8,453.27 c-1.93-0.12-3.56-0.3-5.18-0.3c-12.78-0.02-25.57-0.04-38.35,0c-9.34,0.03-13.96,4.11-15.18,13.35c-0.22,1.64-0.18,3.33-0.18,4.99 c-0.01,34.46-0.01,68.92-0.02,103.38c0,1.84,0,3.68,0,5.69c3.2,1.85,6.22,3.61,9.25,5.35c6.1,3.5,11.83,8.36,18.4,10.12 c6.76,1.81,14.32,0.59,21.54,0.67c3.24,0.04,6.49,0.01,9.72,0.01C560.8,548.29,560.8,500.94,560.8,453.27z M684.53,622.35 c-33.13,0-65.58,0-98.26,0c0,5.89,0,11.4,0,17.25c14.53,11.47,29.16,23.06,43.87,34.55c1.06,0.83,2.7,1.26,4.07,1.27 c12.4,0.09,24.81,0.18,37.21,0.01c7.25-0.1,12.89-5.41,13.02-12.51C684.7,649.59,684.53,636.27,684.53,622.35z"></path> <path d="M666.2,433.41c-6.8-4.18-13.09-8.4-19.72-12.01c-5.07-2.76-10.67-3.77-16.59-3.73c-22.05,0.17-44.1,0.07-66.15,0.07 c-2,0-4.01,0-6.68,0c0.51-3.43,0.82-6.29,1.37-9.1c3.86-19.86,8.94-39.34,18.87-57.19c2.33-4.19,4.98-8.25,7.89-12.06 c1.71-2.24,2.38-4.35,2.15-7.11c-1.42-17.16-2.62-34.33-4.12-51.48c-0.41-4.74-0.15-9.22,1.92-13.52 c3.09-6.42,7.89-8.06,14.07-4.41c3.15,1.86,5.89,4.42,9.37,7.09c63.75-51.93,127.72-104.04,191.88-156.3 c1.29,1.12,2.34,2.03,3.62,3.14c4.72-3.83,9.31-7.55,13.9-11.28c13.64-11.11,27.24-22.28,40.97-33.29 c2.35-1.89,3.62-3.97,4.07-6.89c1.04-6.76,2.29-13.49,3.43-20.24c1.23-7.34,5.24-11.13,12.63-10.06 c5.53,0.81,10.86,3.26,16.14,5.36c1.3,0.52,2.23,2.38,3,3.81c14.35,26.51,28.75,53.01,42.9,79.63c2.93,5.52,5.22,11.44,7.24,17.37 c1.77,5.21,1.14,6.38-2.93,10.58c0,60.66,0,121.6,0,182.66c-1.13,0.49-2.08,0.9-3.3,1.43c0,20.77,0,41.65,0,63.02 c1,0.71,2.37,1.58,3.62,2.6c7.42,6.1,6.46,17.59-2.17,21.78c-3.18,1.54-4.7,3.68-6.09,6.58c-8.23,17.18-16.59,34.29-25.05,51.73 c1.22,2.05,2.4,4.12,3.66,6.13c12.62,20.05,25.25,40.1,37.9,60.13c3.9,6.18,6.87,12.7,7.36,20.11c0.47,7.19-1.51,13.55-6.76,18.67 c-1.32,1.29-2.87,2.34-4.22,3.59c-6.89,6.37-14.78,9.27-24.35,10.2c-31.32,3.04-62.53,7.06-93.79,10.72 c-11.75,1.38-23.49,2.8-35.6,4.24c-1.33-3.15-2.6-6.15-4.09-9.68c7.65-3.13,14.9-6.29,22.3-9.06c3.53-1.32,5.76-3.39,7.42-6.8 c10.68-21.96,21.57-43.81,32.32-65.74c0.78-1.59,1.66-3.64,1.29-5.19c-3.08-12.82-1.59-25.84-1.61-38.73 c-0.19-103.02-0.1-206.04-0.1-309.05c0-1.97,0-3.94,0-5.91c-0.31-0.11-0.62-0.23-0.93-0.34c-5.05,6.52-10.15,13-15.16,19.55 c-41.65,54.41-82.88,109.13-121.58,165.7c-15.47,22.61-30.66,45.41-43.47,69.69C670.6,424.39,668.37,429.07,666.2,433.41z M927.77,334.77c0-52.6,0-104.85,0-157.09c-0.32-0.01-0.64-0.03-0.95-0.04c-12.06,74.93-24.13,149.87-36.29,225.42 c10.49,0,20.27-0.22,30.04,0.09c4.92,0.15,9-0.87,12.07-4.59c0-21.02,0-41.9,0-62.87C931.15,335.41,929.91,335.17,927.77,334.77z M859.29,84.71c-0.28-0.24-0.57-0.48-0.85-0.72c-16.17,13.17-32.35,26.35-48.51,39.51c0.41,1.41,0.74,2.56,1.09,3.78 c-64.32,52.41-128.43,104.65-192.58,156.93c1.63,2.24,2.91,4.05,4.23,5.82c1.39,1.87,2.82,3.72,4.38,5.76 c1.55-1.3,2.72-2.18,3.79-3.17c36.36-33.77,74.04-66.04,112.37-97.52c36.33-29.84,73.05-59.22,109.54-88.86 c1.47-1.2,3.01-2.94,3.43-4.69C857.49,95.99,858.29,90.33,859.29,84.71z M882.73,451.65c4.44,1.52,8.97,2.11,12.24,4.45 c3.3,2.36,5.36,6.46,8.28,10.21c7.25-15.02,14.22-29.48,21.47-44.49c-12.96,0-24.87,0-37.2,0 C885.9,431.86,884.34,441.62,882.73,451.65z"></path> <path d="M575.1,801.18c0.88-2.17,1.7-4.19,2.58-6.36c6.72,0,13.36,0,20.3,0c0.79,2,1.59,4,2.53,6.39c10.42,0,20.89,0,31.67,0 c0.78-1.91,1.59-3.92,2.54-6.25c6.67,0,13.45,0,20.41,0c0.84,2.06,1.66,4.09,2.59,6.37c10.52,0,21,0,31.61,0 c0.88-2.18,1.7-4.2,2.6-6.43c6.68,0,13.29,0,20.34,0c0.74,1.87,1.54,3.87,2.5,6.31c10.44,0,21.07,0,31.81,0 c0.79-2.07,1.5-3.96,2.35-6.19c6.7,0,13.48,0,20.58,0c0.84,2.24,1.73,4.63,2.2,5.9c11.42,4.06,21.98,7.82,33.82,12.03 c1.68-0.84,4.8-2.39,7.78-3.87c4.87,5.06,9.7,10.08,14.88,15.47c-0.89,1.77-2.2,4.39-3.67,7.31c8.62,11.12,14.06,23.73,16.29,37.86 c1.96,0.77,3.81,1.49,5.88,2.3c0,6.88,0,13.65,0,20.53c-2.09,0.8-3.97,1.52-6.16,2.36c-2.7,14.59-8.91,27.64-18.88,39.18 c1.08,2.34,2.14,4.64,3.26,7.09c-4.95,4.63-9.91,9.26-15.45,14.44c-2.31-1.15-5.56-2.78-8.02-4.01c-9.95,3.29-19.2,6.34-28.9,9.55 c-0.58,1.7-1.36,3.97-2.27,6.62c-6.82,0-13.76,0-20.95,0c-0.74-2.12-1.47-4.18-2.32-6.61c-10.27,0-20.57,0-31.33,0 c-0.8,1.96-1.69,4.13-2.71,6.63c-6.71,0-13.48,0-20.7,0c-0.77-2.03-1.59-4.22-2.53-6.68c-10.2,0-20.32,0-30.9,0 c-0.83,2-1.74,4.16-2.79,6.68c-6.64,0-13.41,0-20.62,0c-0.8-2-1.67-4.18-2.67-6.67c-10.29,0-20.6,0-31.2,0 c-0.84,2.18-1.69,4.37-2.61,6.76c-6.88,0-13.68,0-20.66,0c-0.82-2.16-1.6-4.21-2.54-6.69c-10.13,0-20.44,0-31.15,0 c-0.41,0.83-1.01,1.93-1.51,3.08c-0.51,1.16-0.92,2.37-1.42,3.68c-6.81,0-13.45,0-20.47,0c-0.81-2.09-1.65-4.26-2.63-6.78 c-10.26,0-20.55,0-31.22,0c-0.84,2.09-1.72,4.27-2.71,6.72c-6.74,0-13.54,0-20.55,0c-0.9-2.22-1.79-4.4-2.77-6.81 c-10.2,0-20.32,0-30.74,0c-0.87,2.25-1.72,4.44-2.65,6.83c-6.85,0-13.65,0-20.58,0c-0.93-2.3-1.81-4.49-2.76-6.83 c-10.45,0-20.76,0-31.26,0c-0.81,2.25-1.55,4.3-2.41,6.7c-6.73,0-13.51,0-20.76,0c-0.76-1.91-1.62-4.09-2.61-6.62 c-10.21,0-20.51,0-31.22,0c-0.82,2.04-1.7,4.22-2.7,6.69c-6.74,0-13.52,0-20.63,0c-0.86-2.32-1.75-4.71-2.34-6.29 c-10.79-3.65-21.06-7.12-32.74-11.08c-1.76,0.89-5.02,2.55-8.5,4.31c-4.64-5.1-9.22-10.12-14.23-15.62 c0.76-1.62,1.99-4.26,3.34-7.13c-9-11.18-14.72-23.88-17.08-37.96c-3.12-1.06-5.88-2-8.68-2.96c0-6.96,0-13.61,0-20.66 c2.8-1.01,5.69-2.04,8.84-3.17c2.56-13.68,8.34-25.95,17.06-36.93c-1.34-2.7-2.55-5.16-3.68-7.45c5.08-4.88,10.08-9.7,15.47-14.88 c2.46,1.24,5.73,2.88,7.94,3.99c11.03-3.76,21.12-7.19,31.86-10.84c0.52-1.41,1.33-3.64,2.25-6.15c6.82,0,13.57,0,20.56,0 c0.79,2.09,1.56,4.12,2.4,6.35c10.48,0,20.79,0,31.38,0c0.85-2.03,1.68-4.04,2.64-6.35c6.72,0,13.48,0,20.54,0 c0.76,2.04,1.51,4.06,2.36,6.33c10.63,0,21.1,0,31.72,0c0.85-2.21,1.63-4.23,2.47-6.43c6.76,0,13.39,0,20.34,0 c0.82,1.93,1.67,3.93,2.69,6.33c10.32,0,20.78,0,31.61,0c0.76-1.86,1.58-3.87,2.54-6.21c6.72,0,13.48,0,20.51,0 c0.78,1.99,1.57,4.01,2.47,6.31c10.49,0,20.97,0,31.56,0c0.91-2.2,1.74-4.23,2.66-6.45c6.63,0,13.26,0,20.29,0 c0.77,1.91,1.58,3.9,2.56,6.32C554.12,801.18,564.56,801.18,575.1,801.18z M531.18,933.63c77.27,0,154.53,0.11,231.8-0.05 c39.46-0.08,64.55-43.58,44.88-77.79c-10.6-18.43-27.01-27.09-48.29-27.08c-152.31,0.06-304.62,0.03-456.93,0.04 c-2.41,0-4.83-0.01-7.22,0.2c-25.92,2.28-49.24,23.96-47.97,54.3c1.38,32.86,29.21,50.67,53.04,50.54 C377.39,933.37,454.29,933.63,531.18,933.63z"></path> <path d="M445.05,863.22c-4.54,0-8.03-0.05-11.53,0.01c-6.38,0.12-9.55,3.15-9.62,9.55c-0.12,9.81-0.03,19.63-0.03,29.44 c0,4.06,0,8.12,0,12.54c-11.54,0-22.74,0-34.29,0c-0.13-1.57-0.34-2.99-0.35-4.41c-0.03-12.78-0.07-25.55,0-38.33 c0.08-15.24,11.09-26.36,26.21-26.39c30.92-0.06,61.85-0.06,92.77,0c15.37,0.03,26.66,11.2,26.81,26.57 c0.13,14.05,0.03,28.1,0.03,42.54c-11.59,0-22.79,0-34.65,0c0-1.8,0-3.59,0-5.39c0-11.48,0.06-22.96-0.02-34.44 c-0.06-8.83-2.95-11.66-11.6-11.69c-2.92-0.01-5.83,0-9.29,0c0,17.46,0,34.39,0,51.61c-11.62,0-22.68,0-34.43,0 C445.05,897.85,445.05,880.96,445.05,863.22z"></path> <path d="M764.39,845.87c0,22.86,0,45.58,0,68.78c-11.44,0-22.78,0-34.61,0c0-3.73,0-7.18,0-11.14c-7.97,0-15.48,0-23.33,0 c0-5.97,0-11.43,0-17.48c7.55,0,15.06,0,22.97,0c0-7.7,0-14.82,0-22.81c-4.09,0-8.26,0-12.43,0c-3.89,0-7.78-0.07-11.67,0.01 c-6.65,0.14-9.81,3.19-9.92,9.96c-0.15,9.45-0.04,18.9-0.04,28.35c0,4.24,0,8.48,0,13.14c-11.63,0-22.83,0-34.41,0 c-0.08-1.51-0.23-3.13-0.23-4.74c-0.02-12.97-0.14-25.94,0.03-38.91c0.18-13.86,11.34-25.27,25.06-25.36 c25.39-0.17,50.77-0.05,76.16-0.04C762.68,845.63,763.4,845.77,764.39,845.87z"></path> <path d="M580.64,914.87c-11.71,0-22.79,0-34.19,0c-0.17-1.43-0.44-2.65-0.44-3.87c-0.03-13.34-0.12-26.68,0.01-40.02 c0.14-13.89,11.22-25.22,25.01-25.31c25.2-0.16,50.4-0.05,75.6-0.03c0.88,0,1.76,0.17,2.87,0.29c0,23,0,45.72,0,68.82 c-11.31,0-22.52,0-34.14,0c0-3.5,0-6.95,0-11.02c-8.06,0-15.75,0-23.78,0c0-6.24,0-11.86,0-17.96c7.92,0,15.44,0,23.24,0 c0-7.61,0-14.74,0-22.34c-9.19,0-18.21-0.27-27.2,0.11c-4.4,0.19-6.93,3.98-6.96,9.19c-0.07,12.41-0.02,24.83-0.02,37.25 C580.64,911.43,580.64,912.89,580.64,914.87z"></path> <path d="M276.94,897.68c4.87,0,9.1,0,13.32,0c13.88,0,27.77,0.05,41.65-0.02c8.56-0.04,11.66-3.21,11.7-11.85 c0.05-13.13,0.01-26.26,0.01-39.8c11.47,0,22.66,0,34.27,0c0.12,1.24,0.36,2.64,0.36,4.05c0.03,12.77-0.16,25.55,0.06,38.32 c0.26,14.83-12.46,26.46-24.6,26.42c-16.65-0.06-33.31,0.47-49.96,0.15C293.95,914.77,282,906.76,276.94,897.68z"></path> </g> </svg> 